<svg width="24" height="24" viewBox="0 0 24 24" fill="none" xmlns="http://www.w3.org/2000/svg">
<g clip-path="url(#clip0_2421_6826)">
<path d="M0.291147 8.55198C0.075669 8.1523 -0.0241587 7.70049 0.00286712 7.24723C0.0298929 6.79397 0.182703 6.35722 0.444147 5.98598C0.871405 5.3591 1.44359 4.84454 2.11215 4.48598L9.61315 0.581979C10.3504 0.19861 11.1692 -0.00154114 12.0001 -0.00154114C12.8311 -0.00154114 13.6499 0.19861 14.3871 0.581979L21.8871 4.48898C22.5557 4.84754 23.1279 5.3621 23.5551 5.98898C23.8166 6.36022 23.9694 6.79697 23.9964 7.25023C24.0235 7.70349 23.9236 8.1553 23.7081 8.55498C23.4762 8.99381 23.1282 9.36058 22.7022 9.61537C22.2762 9.87015 21.7885 10.0032 21.2921 9.99998H2.70815C2.21131 10.0031 1.72315 9.86969 1.29694 9.61435C0.870718 9.359 0.522805 8.99152 0.291147 8.55198ZM23.0001 22C23.0001 21.4695 22.7894 20.9608 22.4144 20.5858C22.0393 20.2107 21.5306 20 21.0001 20V12H19.0001V20H16.0001V12H14.0001V20H10.0001V12H8.00015V20H5.00015V12H3.00015V20C2.46971 20 1.96101 20.2107 1.58593 20.5858C1.21086 20.9608 1.00015 21.4695 1.00015 22C0.73493 22 0.480576 22.1053 0.29304 22.2929C0.105504 22.4804 0.000146694 22.7348 0.000146694 23C0.000146694 23.2652 0.105504 23.5196 0.29304 23.7071C0.480576 23.8946 0.73493 24 1.00015 24H23.0001C23.2654 24 23.5197 23.8946 23.7073 23.7071C23.8948 23.5196 24.0002 23.2652 24.0002 23C24.0002 22.7348 23.8948 22.4804 23.7073 22.2929C23.5197 22.1053 23.2654 22 23.0001 22Z" fill="#B1B1B1"/>
</g>
<defs>
<clipPath id="clip0_2421_6826">
<rect width="24" height="24" fill="white"/>
</clipPath>
</defs>
</svg>
