<svg width="25" height="25" viewBox="0 0 25 25" fill="none" xmlns="http://www.w3.org/2000/svg">
<g clip-path="url(#clip0_2421_6849)">
<path d="M24.8959 11.9137C24.4866 8.76311 22.893 5.88657 20.439 3.86876C17.9849 1.85096 14.8546 0.843313 11.6843 1.05064C8.51403 1.25797 5.54163 2.66472 3.37129 4.98495C1.20095 7.30517 -0.00445858 10.3648 7.71396e-05 13.5418C-0.00592744 15.2424 0.338679 16.9259 1.01238 18.4873C1.68609 20.0487 2.67443 21.4545 3.9157 22.6168C4.86501 23.4958 6.11586 23.9761 7.40945 23.9585H17.5834C18.95 23.9617 20.263 23.427 21.2386 22.47C22.6289 21.1173 23.6837 19.4583 24.3187 17.6254C24.9537 15.7925 25.1514 13.8366 24.8959 11.9137ZM7.78341 20.4804C7.69303 20.5832 7.58327 20.6671 7.46041 20.7275C7.33756 20.7878 7.20402 20.8234 7.06742 20.8321C6.93083 20.8408 6.79385 20.8225 6.66433 20.7782C6.53481 20.734 6.41528 20.6646 6.31258 20.5741C4.8809 19.3172 3.8665 17.6536 3.4047 15.8052C2.9429 13.9569 3.05565 12.0117 3.72791 10.2291C4.40017 8.44644 5.59997 6.91117 7.16729 5.82804C8.7346 4.74491 10.5949 4.16541 12.5001 4.16684C13.2902 4.16709 14.0772 4.26612 14.8428 4.46164C14.9753 4.49583 15.0999 4.55581 15.2092 4.63813C15.3186 4.72045 15.4107 4.82351 15.4802 4.94142C15.5498 5.05933 15.5954 5.18978 15.6146 5.32533C15.6337 5.46088 15.6259 5.59887 15.5917 5.73143C15.5575 5.86398 15.4976 5.9885 15.4153 6.09788C15.3329 6.20725 15.2299 6.29934 15.112 6.36889C14.9941 6.43844 14.8636 6.48408 14.728 6.50321C14.5925 6.52234 14.4545 6.51458 14.322 6.48039C12.735 6.06906 11.0557 6.20501 9.55551 6.86626C8.05537 7.5275 6.8221 8.6754 6.05511 10.1243C5.28812 11.5733 5.03225 13.2385 5.32886 14.8509C5.62547 16.4633 6.45724 17.9284 7.68966 19.0096C7.79245 19.0999 7.87641 19.2097 7.93676 19.3325C7.9971 19.4554 8.03265 19.5889 8.04135 19.7255C8.05006 19.8621 8.03176 19.9991 7.9875 20.1286C7.94324 20.2582 7.87389 20.3777 7.78341 20.4804ZM12.5001 15.6252C12.2014 15.6291 11.9055 15.5688 11.6322 15.4483C11.3589 15.3279 11.1147 15.15 10.9162 14.9269C10.7177 14.7038 10.5694 14.4406 10.4815 14.1552C10.3936 13.8698 10.3681 13.5688 10.4068 13.2726C10.4454 12.9765 10.5472 12.6921 10.7054 12.4387C10.8635 12.1854 11.0743 11.969 11.3234 11.8043C11.5725 11.6396 11.8542 11.5303 12.1492 11.4839C12.4442 11.4376 12.7458 11.4552 13.0334 11.5356L16.972 7.59705C17.068 7.49756 17.183 7.41821 17.3101 7.36361C17.4372 7.30902 17.5738 7.28029 17.7122 7.27908C17.8505 7.27788 17.9876 7.30424 18.1157 7.35661C18.2437 7.40899 18.36 7.48634 18.4578 7.58414C18.5556 7.68195 18.6329 7.79825 18.6853 7.92627C18.7377 8.05428 18.764 8.19145 18.7628 8.32976C18.7616 8.46807 18.7329 8.60476 18.6783 8.73185C18.6237 8.85894 18.5444 8.97388 18.4449 9.06997L14.5063 13.0085C14.5932 13.3166 14.607 13.6407 14.5466 13.9551C14.4863 14.2694 14.3534 14.5654 14.1587 14.8194C13.9639 15.0734 13.7126 15.2785 13.4247 15.4184C13.1367 15.5583 12.8202 15.6291 12.5001 15.6252ZM18.6876 20.5741C18.4793 20.749 18.2109 20.8354 17.9398 20.8151C17.6686 20.7947 17.4162 20.6691 17.2364 20.4651C17.0566 20.2611 16.9637 19.9948 16.9775 19.7233C16.9914 19.4517 17.1109 19.1963 17.3105 19.0116C18.3234 18.1233 19.07 16.9715 19.4674 15.6842C19.8648 14.3969 19.8974 13.0247 19.5615 11.72C19.4925 11.4523 19.5326 11.1681 19.673 10.93C19.8135 10.6918 20.0428 10.5192 20.3105 10.4502C20.5782 10.3811 20.8624 10.4212 21.1005 10.5617C21.3386 10.7021 21.5112 10.9314 21.5803 11.1991C21.7759 11.9647 21.8749 12.7517 21.8751 13.5418C21.8735 14.8731 21.5885 16.1888 21.0389 17.4014C20.4893 18.6139 19.6877 19.6955 18.6876 20.5741Z" fill="#B1B1B1"/>
</g>
<defs>
<clipPath id="clip0_2421_6849">
<rect width="25" height="25" fill="white"/>
</clipPath>
</defs>
</svg>
