<svg width="25" height="25" viewBox="0 0 25 25" fill="none" xmlns="http://www.w3.org/2000/svg">
<g clip-path="url(#clip0_2421_6856)">
<path d="M19.3554 2.22988L12.8293 0.0538336C12.6157 -0.0173342 12.3847 -0.0173342 12.171 0.0538336L5.64392 2.22988C4.60651 2.57472 3.70414 3.23769 3.065 4.1246C2.42585 5.01152 2.08242 6.07728 2.0835 7.1705V12.5007C2.0835 20.3788 11.6668 24.7299 12.0772 24.9111C12.2104 24.9703 12.3545 25.0008 12.5002 25.0008C12.6459 25.0008 12.7899 24.9703 12.9231 24.9111C13.3335 24.7299 22.9168 20.3788 22.9168 12.5007V7.1705C22.9178 6.07715 22.5743 5.0113 21.9349 4.12437C21.2956 3.23743 20.393 2.57454 19.3554 2.22988ZM12.5002 19.7924C12.2941 19.7924 12.0927 19.7313 11.9214 19.6168C11.7501 19.5024 11.6166 19.3397 11.5378 19.1493C11.459 18.959 11.4383 18.7496 11.4785 18.5475C11.5187 18.3454 11.6179 18.1598 11.7636 18.0141C11.9093 17.8685 12.0949 17.7693 12.2969 17.7291C12.499 17.6889 12.7085 17.7095 12.8988 17.7883C13.0891 17.8672 13.2518 18.0007 13.3663 18.172C13.4807 18.3433 13.5418 18.5447 13.5418 18.7507C13.5418 19.027 13.4321 19.2919 13.2367 19.4873C13.0414 19.6826 12.7764 19.7924 12.5002 19.7924ZM13.5418 14.584C13.5418 14.8603 13.4321 15.1253 13.2367 15.3206C13.0414 15.516 12.7764 15.6257 12.5002 15.6257C12.2239 15.6257 11.9589 15.516 11.7636 15.3206C11.5682 15.1253 11.4585 14.8603 11.4585 14.584V6.25071C11.4585 5.97444 11.5682 5.70949 11.7636 5.51414C11.9589 5.31879 12.2239 5.20904 12.5002 5.20904C12.7764 5.20904 13.0414 5.31879 13.2367 5.51414C13.4321 5.70949 13.5418 5.97444 13.5418 6.25071V14.584Z" fill="#B1B1B1"/>
</g>
<defs>
<clipPath id="clip0_2421_6856">
<rect width="25" height="25" fill="white"/>
</clipPath>
</defs>
</svg>
