<svg width="25" height="25" viewBox="0 0 25 25" fill="none" xmlns="http://www.w3.org/2000/svg">
<g clip-path="url(#clip0_2421_6863)">
<path d="M19.7917 1.04199H5.20833C3.82751 1.04365 2.50371 1.59291 1.52731 2.5693C0.550919 3.5457 0.00165402 4.8695 0 6.25033L0 14.5837C0.00165402 15.9645 0.550919 17.2883 1.52731 18.2647C2.50371 19.2411 3.82751 19.7903 5.20833 19.792H11.4583V21.8753H7.29167C7.0154 21.8753 6.75045 21.9851 6.5551 22.1804C6.35975 22.3758 6.25 22.6407 6.25 22.917C6.25 23.1933 6.35975 23.4582 6.5551 23.6536C6.75045 23.8489 7.0154 23.9587 7.29167 23.9587H17.7083C17.9846 23.9587 18.2496 23.8489 18.4449 23.6536C18.6403 23.4582 18.75 23.1933 18.75 22.917C18.75 22.6407 18.6403 22.3758 18.4449 22.1804C18.2496 21.9851 17.9846 21.8753 17.7083 21.8753H13.5417V19.792H19.7917C21.1725 19.7903 22.4963 19.2411 23.4727 18.2647C24.4491 17.2883 24.9983 15.9645 25 14.5837V6.25033C24.9983 4.8695 24.4491 3.5457 23.4727 2.5693C22.4963 1.59291 21.1725 1.04365 19.7917 1.04199ZM19.7917 11.4587H16.7031L14.9323 14.1201C14.8368 14.2632 14.7075 14.3804 14.5557 14.4613C14.4039 14.5422 14.2345 14.5842 14.0625 14.5837C14.0406 14.5837 14.0187 14.5837 13.9979 14.5837C13.8157 14.5724 13.6396 14.5135 13.4873 14.4128C13.335 14.312 13.2118 14.173 13.1302 14.0097L10.8083 9.36283L9.72083 10.9951C9.62568 11.1377 9.49679 11.2547 9.34561 11.3355C9.19442 11.4164 9.02562 11.4587 8.85417 11.4587H5.20833C4.93207 11.4587 4.66711 11.3489 4.47176 11.1536C4.27641 10.9582 4.16667 10.6933 4.16667 10.417C4.16667 10.1407 4.27641 9.87577 4.47176 9.68042C4.66711 9.48507 4.93207 9.37533 5.20833 9.37533H8.29688L10.0677 6.71387C10.168 6.56029 10.3075 6.43632 10.4717 6.35481C10.636 6.2733 10.8191 6.23723 11.0021 6.25033C11.1843 6.26155 11.3604 6.32049 11.5127 6.42122C11.665 6.52196 11.7882 6.66096 11.8698 6.82428L14.1917 11.4691L15.2792 9.83678C15.3746 9.69455 15.5036 9.57803 15.6547 9.49754C15.8059 9.41705 15.9746 9.37507 16.1458 9.37533H19.7917C20.0679 9.37533 20.3329 9.48507 20.5282 9.68042C20.7236 9.87577 20.8333 10.1407 20.8333 10.417C20.8333 10.6933 20.7236 10.9582 20.5282 11.1536C20.3329 11.3489 20.0679 11.4587 19.7917 11.4587Z" fill="#B1B1B1"/>
</g>
<defs>
<clipPath id="clip0_2421_6863">
<rect width="25" height="25" fill="white"/>
</clipPath>
</defs>
</svg>
